<svg width="494" height="494" viewBox="0 0 494 494" fill="none" xmlns="http://www.w3.org/2000/svg">
<path d="M416.483 0H77.4639C34.6817 0 0 34.6818 0 77.464V416.483C0 459.265 34.6817 493.947 77.4639 493.947H416.483C459.265 493.947 493.947 459.265 493.947 416.483V77.464C493.947 34.6818 459.265 0 416.483 0Z" fill="#01005A"/>
<path d="M198.404 138.152H138.938L63.772 355.803H118.528L132.728 305.021H204.62L225.035 355.803H280.955L198.41 138.152H198.404ZM145.427 262.988L168.603 182.256L194.481 262.988H145.422H145.427Z" fill="#9999FF"/>
<path d="M366.26 275.812C387.292 275.812 408.329 275.812 429.36 275.812C430.135 269.836 430.694 261.304 429.422 251.245C429.394 251.017 429.36 250.749 429.325 250.509V246.974H428.852C427.096 234.719 422.602 213.671 404.462 198.279C385.666 182.335 363.46 181.999 356.167 182.255C327.369 183.27 309.138 201.347 303.458 206.976C292.098 218.233 287.091 229.655 285.94 232.37C279.285 248.137 279.866 261.875 280.374 271.335C280.961 282.307 281.913 300.019 292.994 317.338C312.474 347.79 348.115 353.356 356.173 354.365C383.345 357.781 404.565 348.104 413.284 343.467C413.592 331.794 413.9 320.121 414.214 308.442C394.551 314.481 378.492 313.774 369.106 312.576C357.33 311.082 346.09 309.657 336.978 300.555C328.338 291.933 326.228 281.047 325.601 275.8H366.272L366.26 275.812ZM356.167 216.397C373.052 216.397 386.744 230.088 386.744 246.974H325.59C325.59 230.088 339.282 216.397 356.167 216.397Z" fill="#9999FF"/>
</svg>
