<svg width="494" height="494" viewBox="0 0 494 494" fill="none" xmlns="http://www.w3.org/2000/svg">
<path d="M416.483 0H77.464C34.6818 0 0 34.6818 0 77.464V416.483C0 459.265 34.6818 493.947 77.464 493.947H416.483C459.265 493.947 493.947 459.265 493.947 416.483V77.464C493.947 34.6818 459.265 0 416.483 0Z" fill="#02005D"/>
<path d="M103.314 136.207V357.747H150.32V288.164H185.112C227.071 288.164 261.087 254.148 261.087 212.188C261.087 170.229 227.071 136.213 185.112 136.213H103.314V136.207ZM178.058 246.974H150.314V177.391H178.058C197.275 177.391 212.849 192.971 212.849 212.183C212.849 231.4 197.27 246.974 178.058 246.974Z" fill="#9897FB"/>
<path d="M355.745 192.709C343.786 198.075 335.649 205.272 330.938 210.153V190H288.688V357.748H330.938V256.282C334.297 251.925 344.043 240.48 361.173 235.353C374.101 231.481 385.147 233.032 390.633 234.19V185.741C383.408 185.558 370.298 186.191 355.75 192.715L355.745 192.709Z" fill="#9897FB"/>
</svg>
