<svg width="494" height="494" viewBox="0 0 494 494" fill="none" xmlns="http://www.w3.org/2000/svg">
<path d="M416.483 0H77.464C34.6818 0 0 34.6818 0 77.464V416.483C0 459.265 34.6818 493.947 77.464 493.947H416.483C459.265 493.947 493.947 459.265 493.947 416.483V77.464C493.947 34.6818 459.265 0 416.483 0Z" fill="#011E36"/>
<path d="M97.0181 134.598V356.138H144.024V286.555H178.816C220.776 286.555 254.792 252.539 254.792 210.579C254.792 168.619 220.776 134.603 178.816 134.603H97.0181V134.598ZM171.768 245.365H144.024V175.782H171.768C190.985 175.782 206.559 191.361 206.559 210.573C206.559 229.791 190.98 245.365 171.768 245.365Z" fill="#2CABFE"/>
<path d="M387.08 191.904V235.957C373 227.152 360.495 224.529 352.796 223.639C344.75 222.709 329.906 220.999 324.848 228.88C324.568 229.319 322.681 232.347 323.245 236.099C324.597 245.155 338.699 248.405 352.927 254.952C365.889 260.917 388.546 271.341 395.041 289.447C401.565 307.632 389.293 326.65 387.422 329.553C372.407 352.831 344.288 356.697 331.674 358.431C306.993 361.824 286.806 355.186 275.851 350.499V309.748C297.686 316.306 314.093 318.479 324.454 319.277C333.436 319.967 343.267 320.041 346.586 314.538C347.892 312.371 347.755 310.056 347.704 309.451C347.128 302.842 338.791 298.645 330.26 294.476C300.332 279.861 301.017 280.779 297.983 278.618C293.757 275.612 281.685 266.762 276.319 250.589C274.904 246.33 270.662 232.889 276.416 218.353C281.559 205.351 291.807 198.764 297.333 195.217C330.761 173.741 379.313 189.315 387.091 191.915L387.08 191.904Z" fill="#2CABFE"/>
</svg>
